<?xml version="1.0" standalone="no"?>
<!DOCTYPE svg PUBLIC "-//W3C//DTD SVG 20010904//EN"
 "http://www.w3.org/TR/2001/REC-SVG-20010904/DTD/svg10.dtd">
<svg version="1.0" xmlns="http://www.w3.org/2000/svg"
 width="142.000000pt" height="142.000000pt" viewBox="0 0 142.000000 142.000000"
 preserveAspectRatio="xMidYMid meet">
<metadata>
Created by potrace 1.14, written by Peter Selinger 2001-2017
</metadata>
<g transform="translate(0.000000,142.000000) scale(0.100000,-0.100000)"
fill="#000000" stroke="none">
<path d="M948 1046 c-154 -52 -242 -160 -255 -314 -13 -162 78 -303 234 -362
121 -46 295 -34 408 28 l50 27 3 146 3 145 -73 -2 c-40 -1 -76 -2 -80 -3 -3 0
-6 -45 -6 -98 0 -113 -4 -118 -89 -129 -145 -18 -265 66 -278 194 -15 156 115
272 280 248 23 -4 67 -22 98 -40 l55 -33 52 47 53 46 -24 23 c-99 93 -285 127
-431 77z"/>
<path d="M14 995 l-1 -65 119 0 118 0 0 -290 0 -290 85 0 85 0 0 290 0 290
115 0 c102 0 115 2 116 18 1 9 2 38 3 65 l1 47 -320 0 -321 0 0 -65z"/>
</g>
</svg>
